# xmcd
#
# Track frame offsets: 
#        150
#        8640
#        20772
#        32410
#        43770
#        53665
#        63557
#        73135
#        84135
#        94732
#        106597
#        118645
#
# Disc length: 1712 seconds
#
# Revision: 0
# Processed by: cddbd v1.5.2PL0 Copyright (c) Steve Scherf et al.
# Submitted via: ExactAudioCopy v0.99pb3
#
DISCID=8e06ae0c
DTITLE=T. Texas Tyler - Great Texan, The
DYEAR=1960
DGENRE=Country
TTITLE0=Praise The Lord
TTITLE1=The Old Country Church
TTITLE2=In The Sweet Bye And Bye
TTITLE3=You've Got To Live Your Religion
TTITLE4=I Dreamed I Searched Heaven
TTITLE5=This Old Clay House
TTITLE6=Blessed Jesus Hold My Hand
TTITLE7=In The Land Where We'll Never Grow Old
TTITLE8=God Put A Rainbow In The Cloud
TTITLE9=Didn't They Crucify My Lord
TTITLE10=If I Could Hear My Mother Pray Again
TTITLE11=What A Friend We Have In Jesus
EXTD=
EXTT0=
EXTT1=
EXTT2=
EXTT3=
EXTT4=
EXTT5=
EXTT6=
EXTT7=
EXTT8=
EXTT9=
EXTT10=
EXTT11=
PLAYORDER=
